<svg width="353" height="36" viewBox="0 0 353 36" fill="none" xmlns="http://www.w3.org/2000/svg">
<g clip-path="url(#clip0_3_12)">
<path d="M0.0888062 1.08954V2.05135C4.16243 2.05135 7.46682 5.38096 7.46682 9.48969C7.46682 13.5984 4.16243 16.9262 0.0888062 16.9262V18.0009H26.9112V1.08954H0.0888062Z" fill="#22235F" stroke="#22235F" stroke-miterlimit="10"/>
<path d="M0.0888062 18.0009V18.9627C4.16243 18.9627 7.46682 22.2923 7.46682 26.4011C7.46682 30.5098 4.16243 33.8358 0.0888062 33.8358V34.9105H26.9112V17.9991H0.0888062V18.0009Z" fill="#22235F" stroke="#22235F" stroke-miterlimit="10"/>
</g>
<path d="M57.456 15.0866H52.1293C52.0582 14.5398 51.9126 14.0462 51.6925 13.6058C51.4723 13.1655 51.1811 12.7891 50.8189 12.4766C50.4567 12.1641 50.027 11.9261 49.5298 11.7628C49.0398 11.5923 48.4964 11.5071 47.8999 11.5071C46.8416 11.5071 45.929 11.7663 45.1619 12.2848C44.402 12.8033 43.8161 13.5526 43.4041 14.5327C42.9993 15.5128 42.7969 16.6989 42.7969 18.0909C42.7969 19.5398 43.0028 20.7543 43.4148 21.7344C43.8338 22.7074 44.4197 23.4425 45.1726 23.9396C45.9325 24.4297 46.831 24.6747 47.8679 24.6747C48.4503 24.6747 48.9794 24.6001 49.4553 24.451C49.9382 24.3018 50.3608 24.0852 50.723 23.8011C51.0923 23.5099 51.3942 23.1584 51.6286 22.7464C51.87 22.3274 52.0369 21.8551 52.1293 21.3295L57.456 21.3615C57.3636 22.3274 57.0831 23.2791 56.6143 24.2166C56.1527 25.1541 55.517 26.0099 54.7074 26.7841C53.8977 27.5511 52.9105 28.1619 51.7457 28.6165C50.5881 29.071 49.2599 29.2983 47.7614 29.2983C45.7869 29.2983 44.0185 28.8651 42.456 27.9986C40.9006 27.125 39.6719 25.8537 38.7699 24.1847C37.8679 22.5156 37.4169 20.4844 37.4169 18.0909C37.4169 15.6903 37.875 13.6555 38.7912 11.9865C39.7074 10.3175 40.9467 9.04972 42.5092 8.18324C44.0717 7.31676 45.8224 6.88352 47.7614 6.88352C49.0824 6.88352 50.304 7.06818 51.4261 7.4375C52.5483 7.79972 53.5355 8.33239 54.3878 9.03551C55.2401 9.73153 55.9325 10.5874 56.4652 11.603C56.9979 12.6186 57.3281 13.7798 57.456 15.0866ZM68.112 29.3089C66.3933 29.3089 64.916 28.9574 63.6802 28.2543C62.4515 27.544 61.5034 26.5568 60.8358 25.2926C60.1752 24.0213 59.845 22.5476 59.845 20.8714C59.845 19.1882 60.1752 17.7145 60.8358 16.4503C61.5034 15.179 62.4515 14.1918 63.6802 13.4886C64.916 12.7784 66.3933 12.4233 68.112 12.4233C69.8308 12.4233 71.3045 12.7784 72.5332 13.4886C73.769 14.1918 74.7172 15.179 75.3777 16.4503C76.0453 17.7145 76.3791 19.1882 76.3791 20.8714C76.3791 22.5476 76.0453 24.0213 75.3777 25.2926C74.7172 26.5568 73.769 27.544 72.5332 28.2543C71.3045 28.9574 69.8308 29.3089 68.112 29.3089ZM68.144 25.3778C68.769 25.3778 69.2981 25.1861 69.7314 24.8026C70.1646 24.419 70.4949 23.8864 70.7221 23.2045C70.9565 22.5227 71.0737 21.7344 71.0737 20.8395C71.0737 19.9304 70.9565 19.1349 70.7221 18.4531C70.4949 17.7713 70.1646 17.2386 69.7314 16.8551C69.2981 16.4716 68.769 16.2798 68.144 16.2798C67.4977 16.2798 66.9508 16.4716 66.5034 16.8551C66.063 17.2386 65.7257 17.7713 65.4913 18.4531C65.264 19.1349 65.1504 19.9304 65.1504 20.8395C65.1504 21.7344 65.264 22.5227 65.4913 23.2045C65.7257 23.8864 66.063 24.419 66.5034 24.8026C66.9508 25.1861 67.4977 25.3778 68.144 25.3778ZM79.0478 29V12.6364H84.0016V15.6406H84.1827C84.5236 14.6463 85.0989 13.8615 85.9086 13.2862C86.7182 12.7109 87.6841 12.4233 88.8063 12.4233C89.9426 12.4233 90.9157 12.7145 91.7253 13.2969C92.535 13.8793 93.0499 14.6605 93.2701 15.6406H93.4405C93.7459 14.6676 94.3425 13.8899 95.2303 13.3075C96.1181 12.718 97.1657 12.4233 98.373 12.4233C99.9213 12.4233 101.178 12.9205 102.144 13.9148C103.11 14.902 103.593 16.2585 103.593 17.9844V29H98.3837V19.1776C98.3837 18.3608 98.1742 17.7393 97.7551 17.3132C97.3361 16.88 96.7928 16.6634 96.1252 16.6634C95.4078 16.6634 94.8432 16.8977 94.4313 17.3665C94.0265 17.8281 93.824 18.4496 93.824 19.2308V29H88.8169V19.1243C88.8169 18.3643 88.611 17.7642 88.199 17.3239C87.7871 16.8835 87.2438 16.6634 86.5691 16.6634C86.1145 16.6634 85.7132 16.7734 85.3652 16.9936C85.0172 17.2067 84.7438 17.5121 84.5449 17.9098C84.3532 18.3075 84.2573 18.7763 84.2573 19.3161V29H79.0478ZM106.821 29V12.6364H111.775V15.6406H111.956C112.297 14.6463 112.872 13.8615 113.682 13.2862C114.492 12.7109 115.458 12.4233 116.58 12.4233C117.716 12.4233 118.689 12.7145 119.499 13.2969C120.308 13.8793 120.823 14.6605 121.044 15.6406H121.214C121.519 14.6676 122.116 13.8899 123.004 13.3075C123.892 12.718 124.939 12.4233 126.146 12.4233C127.695 12.4233 128.952 12.9205 129.918 13.9148C130.884 14.902 131.367 16.2585 131.367 17.9844V29H126.157V19.1776C126.157 18.3608 125.948 17.7393 125.529 17.3132C125.11 16.88 124.566 16.6634 123.899 16.6634C123.181 16.6634 122.617 16.8977 122.205 17.3665C121.8 17.8281 121.597 18.4496 121.597 19.2308V29H116.59V19.1243C116.59 18.3643 116.384 17.7642 115.972 17.3239C115.561 16.8835 115.017 16.6634 114.343 16.6634C113.888 16.6634 113.487 16.7734 113.139 16.9936C112.791 17.2067 112.517 17.5121 112.318 17.9098C112.127 18.3075 112.031 18.7763 112.031 19.3161V29H106.821ZM145.152 21.9368V12.6364H150.351V29H145.387V25.9531H145.216C144.854 26.9545 144.236 27.75 143.362 28.3395C142.496 28.9219 141.448 29.2131 140.22 29.2131C139.105 29.2131 138.124 28.9574 137.279 28.446C136.434 27.9347 135.777 27.2209 135.308 26.3047C134.84 25.3814 134.602 24.3018 134.595 23.0661V12.6364H139.804V22.0433C139.811 22.9311 140.046 23.6307 140.507 24.142C140.969 24.6534 141.597 24.9091 142.393 24.9091C142.911 24.9091 143.377 24.7955 143.789 24.5682C144.208 24.3338 144.538 23.9964 144.779 23.5561C145.028 23.1087 145.152 22.5689 145.152 21.9368ZM158.876 19.6676V29H153.667V12.6364H158.621V15.6406H158.802C159.164 14.6392 159.782 13.8544 160.656 13.2862C161.529 12.7109 162.57 12.4233 163.777 12.4233C164.928 12.4233 165.925 12.6825 166.771 13.201C167.623 13.7124 168.283 14.4297 168.752 15.353C169.228 16.2692 169.462 17.3416 169.455 18.5703V29H164.246V19.593C164.253 18.6839 164.022 17.9737 163.553 17.4624C163.092 16.951 162.449 16.6953 161.625 16.6953C161.078 16.6953 160.595 16.8161 160.176 17.0575C159.764 17.2919 159.445 17.6293 159.217 18.0696C158.997 18.5099 158.884 19.0426 158.876 19.6676ZM172.681 29V12.6364H177.89V29H172.681ZM175.291 10.7294C174.559 10.7294 173.931 10.4879 173.405 10.005C172.879 9.51491 172.617 8.92543 172.617 8.23651C172.617 7.55469 172.879 6.9723 173.405 6.48935C173.931 5.99929 174.559 5.75426 175.291 5.75426C176.029 5.75426 176.658 5.99929 177.176 6.48935C177.702 6.9723 177.965 7.55469 177.965 8.23651C177.965 8.92543 177.702 9.51491 177.176 10.005C176.658 10.4879 176.029 10.7294 175.291 10.7294ZM190.442 12.6364V16.4716H180.119V12.6364H190.442ZM182.282 8.71591H187.491V23.8544C187.491 24.174 187.541 24.4332 187.641 24.6321C187.747 24.8239 187.9 24.9624 188.099 25.0476C188.298 25.1257 188.536 25.1648 188.812 25.1648C189.011 25.1648 189.221 25.147 189.441 25.1115C189.668 25.0689 189.839 25.0334 189.952 25.005L190.741 28.7656C190.492 28.8366 190.141 28.9254 189.686 29.032C189.239 29.1385 188.702 29.206 188.077 29.2344C186.856 29.2912 185.808 29.1491 184.935 28.8082C184.068 28.4602 183.404 27.9205 182.942 27.1889C182.488 26.4574 182.268 25.5376 182.282 24.4297V8.71591ZM196.286 35.1364C195.661 35.1364 195.071 35.0866 194.517 34.9872C193.963 34.8949 193.488 34.7706 193.09 34.6143L194.24 30.8324C194.752 31.0028 195.213 31.1023 195.625 31.1307C196.044 31.1591 196.403 31.0916 196.701 30.9283C197.007 30.772 197.241 30.4915 197.404 30.0866L197.607 29.5966L191.79 12.6364H197.245L200.26 24.3125H200.43L203.488 12.6364H208.974L202.806 30.5661C202.507 31.4609 202.085 32.2493 201.538 32.9311C200.998 33.62 200.299 34.1598 199.439 34.5504C198.587 34.9411 197.536 35.1364 196.286 35.1364ZM217.417 29V7.18182H222.69V24.7173H231.767V29H217.417ZM234.497 29V12.6364H239.706V29H234.497ZM237.107 10.7294C236.376 10.7294 235.747 10.4879 235.221 10.005C234.696 9.51491 234.433 8.92543 234.433 8.23651C234.433 7.55469 234.696 6.9723 235.221 6.48935C235.747 5.99929 236.376 5.75426 237.107 5.75426C237.846 5.75426 238.474 5.99929 238.993 6.48935C239.518 6.9723 239.781 7.55469 239.781 8.23651C239.781 8.92543 239.518 9.51491 238.993 10.005C238.474 10.4879 237.846 10.7294 237.107 10.7294ZM243.022 29V7.18182H248.232V15.4382H248.338C248.551 14.9411 248.853 14.4616 249.244 14C249.642 13.5384 250.146 13.1619 250.757 12.8707C251.375 12.5724 252.113 12.4233 252.973 12.4233C254.109 12.4233 255.171 12.7216 256.158 13.3182C257.152 13.9148 257.955 14.8345 258.566 16.0774C259.176 17.3203 259.482 18.9041 259.482 20.8288C259.482 22.6825 259.187 24.2344 258.598 25.4844C258.015 26.7344 257.227 27.6719 256.233 28.2969C255.245 28.9219 254.148 29.2344 252.941 29.2344C252.117 29.2344 251.403 29.0994 250.799 28.8295C250.196 28.5597 249.688 28.2045 249.276 27.7642C248.871 27.3239 248.559 26.8516 248.338 26.3473H248.179V29H243.022ZM248.125 20.8182C248.125 21.6989 248.243 22.4659 248.477 23.1193C248.718 23.7727 249.063 24.2805 249.51 24.6428C249.965 24.9979 250.508 25.1754 251.14 25.1754C251.779 25.1754 252.323 24.9979 252.77 24.6428C253.218 24.2805 253.555 23.7727 253.782 23.1193C254.017 22.4659 254.134 21.6989 254.134 20.8182C254.134 19.9375 254.017 19.174 253.782 18.5277C253.555 17.8814 253.218 17.3807 252.77 17.0256C252.33 16.6705 251.787 16.4929 251.14 16.4929C250.501 16.4929 249.958 16.6669 249.51 17.0149C249.063 17.3629 248.718 17.8601 248.477 18.5064C248.243 19.1527 248.125 19.9233 248.125 20.8182ZM262.212 29V12.6364H267.272V15.6193H267.443C267.741 14.5398 268.227 13.7372 268.902 13.2116C269.577 12.679 270.362 12.4126 271.257 12.4126C271.498 12.4126 271.747 12.4304 272.002 12.4659C272.258 12.4943 272.496 12.5405 272.716 12.6044V17.1321C272.468 17.0469 272.141 16.9794 271.736 16.9297C271.338 16.88 270.983 16.8551 270.671 16.8551C270.053 16.8551 269.495 16.9936 268.998 17.2706C268.508 17.5405 268.121 17.9205 267.837 18.4105C267.56 18.8935 267.421 19.4616 267.421 20.1151V29H262.212ZM278.836 29.277C277.792 29.277 276.866 29.103 276.056 28.755C275.253 28.3999 274.618 27.8672 274.149 27.157C273.687 26.4396 273.456 25.5412 273.456 24.4616C273.456 23.5526 273.616 22.7855 273.936 22.1605C274.256 21.5355 274.696 21.0277 275.257 20.6371C275.818 20.2464 276.464 19.9517 277.196 19.7528C277.927 19.5469 278.709 19.4084 279.54 19.3374C280.47 19.2521 281.219 19.1634 281.787 19.071C282.356 18.9716 282.768 18.8331 283.023 18.6555C283.286 18.4709 283.417 18.2116 283.417 17.8778V17.8246C283.417 17.2777 283.229 16.8551 282.853 16.5568C282.476 16.2585 281.969 16.1094 281.329 16.1094C280.64 16.1094 280.086 16.2585 279.667 16.5568C279.248 16.8551 278.982 17.267 278.868 17.7926L274.064 17.6222C274.206 16.6278 274.572 15.7401 275.161 14.9588C275.758 14.1705 276.574 13.5526 277.611 13.1051C278.655 12.6506 279.909 12.4233 281.372 12.4233C282.416 12.4233 283.378 12.5476 284.259 12.7962C285.14 13.0376 285.907 13.3928 286.56 13.8615C287.214 14.3232 287.718 14.8913 288.073 15.5661C288.435 16.2408 288.616 17.0114 288.616 17.8778V29H283.716V26.7202H283.588C283.297 27.2741 282.924 27.7429 282.469 28.1264C282.022 28.5099 281.493 28.7976 280.882 28.9893C280.278 29.1811 279.596 29.277 278.836 29.277ZM280.445 25.8679C281.006 25.8679 281.51 25.7543 281.958 25.527C282.412 25.2997 282.775 24.9872 283.045 24.5895C283.314 24.1847 283.449 23.7159 283.449 23.1832V21.6278C283.3 21.706 283.119 21.777 282.906 21.8409C282.7 21.9048 282.473 21.9652 282.224 22.022C281.976 22.0788 281.72 22.1286 281.457 22.1712C281.194 22.2138 280.942 22.2528 280.701 22.2884C280.211 22.3665 279.792 22.4872 279.444 22.6506C279.103 22.8139 278.84 23.027 278.655 23.2898C278.478 23.5455 278.389 23.8509 278.389 24.206C278.389 24.7457 278.581 25.1577 278.964 25.4418C279.355 25.7259 279.849 25.8679 280.445 25.8679ZM291.802 29V12.6364H296.862V15.6193H297.032C297.331 14.5398 297.817 13.7372 298.492 13.2116C299.167 12.679 299.952 12.4126 300.846 12.4126C301.088 12.4126 301.336 12.4304 301.592 12.4659C301.848 12.4943 302.086 12.5405 302.306 12.6044V17.1321C302.057 17.0469 301.731 16.9794 301.326 16.9297C300.928 16.88 300.573 16.8551 300.26 16.8551C299.643 16.8551 299.085 16.9936 298.588 17.2706C298.098 17.5405 297.711 17.9205 297.427 18.4105C297.15 18.8935 297.011 19.4616 297.011 20.1151V29H291.802ZM308.112 35.1364C307.487 35.1364 306.898 35.0866 306.344 34.9872C305.79 34.8949 305.314 34.7706 304.916 34.6143L306.067 30.8324C306.578 31.0028 307.04 31.1023 307.452 31.1307C307.871 31.1591 308.229 31.0916 308.528 30.9283C308.833 30.772 309.067 30.4915 309.231 30.0866L309.433 29.5966L303.616 12.6364H309.071L312.086 24.3125H312.256L315.314 12.6364H320.8L314.632 30.5661C314.334 31.4609 313.911 32.2493 313.364 32.9311C312.824 33.62 312.125 34.1598 311.265 34.5504C310.413 34.9411 309.362 35.1364 308.112 35.1364Z" fill="#22235F"/>
<defs>
<clipPath id="clip0_3_12">
<rect width="27" height="34" fill="white" transform="translate(0 1)"/>
</clipPath>
</defs>
</svg>
